# xmcd CD database file
#
# Track frame offsets:
#	150
#	30137
#	54597
#	78692
#	96627
#	124985
#	158962
#	180885
#
# Disc length: 2624 seconds
#
# Revision: 11
# Processed by: cddbd v1.5.2PL0 Copyright (c) Steve Scherf et al.
# Submitted via: CDex 1.70beta3
#
DISCID=600a3e08
DTITLE=ディープ・パープル - マシン・ヘッド～アニヴァーサリー・エディション CD1
DYEAR=1997
DGENRE=Hard Rock
TTITLE0=ハイウェイ・スター(1997リミックス) 
TTITLE1=メイビー・アイム・ア・レオ(1997リミックス) 
TTITLE2=ピクチャー・オブ・ホーム(1997リミックス) 
TTITLE3=ネヴァー・ビフォア(1997リミックス) 
TTITLE4=スモーク・オン・ザ・ウォーター(1997リミックス) 
TTITLE5=レイジー(1997リミックス) 
TTITLE6=スペース・トラッキン(1997リミックス) 
TTITLE7=ブラインド・マン(1997リミックス) 
EXTD=YEAR: 1997
EXTT0=
EXTT1=
EXTT2=
EXTT3=
EXTT4=
EXTT5=
EXTT6=
EXTT7=
PLAYORDER=
